<svg xmlns="http://www.w3.org/2000/svg" width="728" height="900.903" viewBox="0 0 728 900.903">
  <g id="Group_11307" data-name="Group 11307" transform="translate(2330 -2767.097)">
    <path id="Subtraction_1" data-name="Subtraction 1" d="M182.826,789.07h0V730.861L0,730.711V57.515H182.826V0L516.983,60.375l-.194,376.7c-3.064-.112-6.189-.17-9.288-.17a251.349,251.349,0,0,0-50.283,5.069A248.133,248.133,0,0,0,368,479.514a250.229,250.229,0,0,0-90.4,109.773,248.247,248.247,0,0,0-14.538,46.834A251.339,251.339,0,0,0,258,686.4a248.65,248.65,0,0,0,15.367,86.4L182.826,789.07ZM54.283,111.8V676.473l128.543.1V111.8ZM238.192,368.12a16.234,16.234,0,0,0-7.9,2.076,20.882,20.882,0,0,0-6.453,5.661,27.825,27.825,0,0,0-4.351,8.4,33.942,33.942,0,0,0,0,20.564,27.823,27.823,0,0,0,4.35,8.4,20.876,20.876,0,0,0,6.452,5.66,16.08,16.08,0,0,0,15.8,0,20.879,20.879,0,0,0,6.453-5.66,27.823,27.823,0,0,0,4.35-8.4,33.932,33.932,0,0,0,0-20.564,27.829,27.829,0,0,0-4.351-8.4,20.882,20.882,0,0,0-6.453-5.661A16.235,16.235,0,0,0,238.192,368.12Z" transform="translate(-2330 2767.097)" fill="#ff8d00"/>
    <circle id="Ellipse_142" data-name="Ellipse 142" cx="220" cy="220" r="220" transform="translate(-2042 3228)" fill="#ff8d00"/>
    <g id="calendar_1_" data-name="calendar (1)" transform="translate(-1960 3310)">
      <g id="Group_11306" data-name="Group 11306">
        <g id="Group_11305" data-name="Group 11305">
          <circle id="Ellipse_133" data-name="Ellipse 133" cx="10.5" cy="10.5" r="10.5" transform="translate(198 103)" fill="#fff"/>
          <path id="Path_11267" data-name="Path 11267" d="M233.195,21.592H219.16V10.8a10.8,10.8,0,0,0-21.592,0v10.8H148.446V10.8a10.8,10.8,0,1,0-21.592,0v10.8H78.271V10.8a10.8,10.8,0,1,0-21.592,0v10.8h-13.5A43.233,43.233,0,0,0,0,64.776V233.195a43.233,43.233,0,0,0,43.184,43.184h82.59a10.8,10.8,0,0,0,0-21.592H43.184a21.617,21.617,0,0,1-21.592-21.592V64.776A21.617,21.617,0,0,1,43.184,43.184h13.5v10.8a10.8,10.8,0,1,0,21.592,0v-10.8h48.582v10.8a10.8,10.8,0,1,0,21.592,0v-10.8h49.122v10.8a10.8,10.8,0,1,0,21.592,0v-10.8h14.035a21.617,21.617,0,0,1,21.592,21.592v61.538a10.8,10.8,0,1,0,21.592,0V64.776A43.233,43.233,0,0,0,233.195,21.592Z" fill="#fff"/>
          <path id="Path_11268" data-name="Path 11268" d="M335.316,270a65.316,65.316,0,1,0,65.316,65.316A65.39,65.39,0,0,0,335.316,270Zm0,109.04a43.724,43.724,0,1,1,43.724-43.724A43.774,43.774,0,0,1,335.316,379.04Z" transform="translate(-124.253 -124.253)" fill="#fff"/>
          <path id="Path_11269" data-name="Path 11269" d="M397.45,352.132h-4.858V340.8a10.8,10.8,0,1,0-21.592,0v22.132a10.8,10.8,0,0,0,10.8,10.8H397.45a10.8,10.8,0,0,0,0-21.592Z" transform="translate(-170.733 -151.865)" fill="#fff"/>
          <circle id="Ellipse_134" data-name="Ellipse 134" cx="10.5" cy="10.5" r="10.5" transform="translate(151 103)" fill="#fff"/>
          <circle id="Ellipse_135" data-name="Ellipse 135" cx="10.5" cy="10.5" r="10.5" transform="translate(104 150)" fill="#fff"/>
          <circle id="Ellipse_136" data-name="Ellipse 136" cx="10.5" cy="10.5" r="10.5" transform="translate(57 103)" fill="#fff"/>
          <circle id="Ellipse_137" data-name="Ellipse 137" cx="10.5" cy="10.5" r="10.5" transform="translate(57 150)" fill="#fff"/>
          <ellipse id="Ellipse_138" data-name="Ellipse 138" cx="10.5" cy="11" rx="10.5" ry="11" transform="translate(57 196)" fill="#fff"/>
          <ellipse id="Ellipse_139" data-name="Ellipse 139" cx="10.5" cy="11" rx="10.5" ry="11" transform="translate(104 196)" fill="#fff"/>
          <circle id="Ellipse_140" data-name="Ellipse 140" cx="10.5" cy="10.5" r="10.5" transform="translate(104 103)" fill="#fff"/>
        </g>
      </g>
    </g>
  </g>
</svg>
