<svg xmlns="http://www.w3.org/2000/svg" xmlns:xlink="http://www.w3.org/1999/xlink" width="48" height="48" viewBox="0 0 48 48">
  <defs>
    <clipPath id="clip-Expected">
      <rect width="48" height="48"/>
    </clipPath>
  </defs>
  <g id="Expected" clip-path="url(#clip-Expected)">
    <rect width="48" height="48" fill="#fff"/>
    <g id="time-left" transform="translate(7 5.312)">
      <g id="Layer_2_16_" transform="translate(0 1.688)">
        <g id="Group_6576" data-name="Group 6576" transform="translate(0 0)">
          <path id="Path_2834" data-name="Path 2834" d="M254.415,423.191c-.249.062-.5.117-.755.163a1.214,1.214,0,0,0,.442,2.388c.3-.056.6-.121.9-.2a1.214,1.214,0,1,0-.587-2.356Z" transform="translate(-233.951 -392.022)" fill="#fd8d25" stroke="#fd8d25" stroke-width="0.3"/>
          <path id="Path_2835" data-name="Path 2835" d="M412.812,138.6a1.214,1.214,0,1,0,2.305-.763c-.1-.29-.2-.581-.316-.865a1.214,1.214,0,1,0-2.255.9C412.642,138.114,412.731,138.358,412.812,138.6Z" transform="translate(-381.884 -126.246)" fill="#fd8d25" stroke="#fd8d25" stroke-width="0.3"/>
          <path id="Path_2836" data-name="Path 2836" d="M322.132,394.113c-.214.141-.435.278-.658.406a1.214,1.214,0,1,0,1.213,2.1c.265-.153.528-.315.783-.484a1.214,1.214,0,0,0-1.339-2.026Z" transform="translate(-297.111 -364.677)" fill="#fd8d25" stroke="#fd8d25" stroke-width="0.3"/>
          <path id="Path_2837" data-name="Path 2837" d="M430.062,208.478a1.214,1.214,0,1,0-2.426.1c.01.256.013.516.007.772a1.214,1.214,0,1,0,2.428.054C430.076,209.093,430.074,208.784,430.062,208.478Z" transform="translate(-396.073 -192.077)" fill="#fd8d25" stroke="#fd8d25" stroke-width="0.3"/>
          <path id="Path_2838" data-name="Path 2838" d="M379.228,344.312a1.213,1.213,0,0,0-1.7.243c-.154.205-.316.408-.483.6a1.215,1.215,0,0,0,.137,1.711c.029.025.059.047.089.069a1.214,1.214,0,0,0,1.623-.206c.2-.233.392-.476.576-.721A1.214,1.214,0,0,0,379.228,344.312Z" transform="translate(-348.498 -318.724)" fill="#fd8d25" stroke="#fd8d25" stroke-width="0.3"/>
          <path id="Path_2839" data-name="Path 2839" d="M415.607,279.407a1.214,1.214,0,0,0-1.522.8c-.077.244-.162.49-.254.731a1.214,1.214,0,0,0,.434,1.424,1.2,1.2,0,0,0,.268.142,1.213,1.213,0,0,0,1.567-.7c.109-.286.21-.578.3-.869A1.214,1.214,0,0,0,415.607,279.407Z" transform="translate(-383.092 -258.784)" fill="#fd8d25" stroke="#fd8d25" stroke-width="0.3"/>
          <path id="Path_2840" data-name="Path 2840" d="M14.711,32.729a14.518,14.518,0,0,1-3.564-1.114c-.013-.007-.025-.015-.039-.021-.266-.123-.532-.255-.79-.393l0,0a14.862,14.862,0,0,1-1.382-.85,14.131,14.131,0,0,1-3.5-19.874A14.326,14.326,0,0,1,8.992,6.986l.05-.034A14.723,14.723,0,0,1,25.32,6.823L24.234,8.366c-.3.429-.116.742.412.7l4.715-.415a.766.766,0,0,0,.7-1L28.8,3.159c-.142-.5-.5-.563-.807-.134L26.9,4.572A17.388,17.388,0,0,0,14.33,1.942q-.667.114-1.316.276l-.009,0-.05.014A17.149,17.149,0,0,0,3.455,8.5c-.02.023-.041.046-.059.071-.079.1-.157.211-.234.318-.125.175-.249.355-.367.534-.015.022-.026.044-.039.065A16.645,16.645,0,0,0,.018,19.426c0,.012,0,.023,0,.035.016.343.043.69.081,1.033,0,.022.007.043.011.065.039.344.087.689.148,1.034A16.778,16.778,0,0,0,5.093,30.74l.018.018.006.006a17.439,17.439,0,0,0,9.1,4.656,1.387,1.387,0,0,0,1.612-1.1A1.369,1.369,0,0,0,14.711,32.729Z" transform="translate(0 -1.688)" fill="#fd8d25" stroke="#fd8d25" stroke-width="0.3"/>
          <path id="Path_2841" data-name="Path 2841" d="M206.97,83.2a.983.983,0,0,0-.983.982v9.787l8.951,4.627a.982.982,0,0,0,.9-1.745l-7.889-4.079V84.18A.982.982,0,0,0,206.97,83.2Z" transform="translate(-190.051 -76.528)" fill="#fd8d25" stroke="#fd8d25" stroke-width="0.3"/>
        </g>
      </g>
    </g>
  </g>
</svg>
