<svg xmlns="http://www.w3.org/2000/svg" width="16" height="15.646" viewBox="0 0 16 15.646">
  <path id="_Pngtree_release_47357" data-name="—Pngtree—release_47357" d="M40.143,46.079Zm2.139,7.334H31.065a2.325,2.325,0,0,1-2.085-2.084V41.716c0-1.005,1.075-1.548,2.085-1.548h6.144a.75.75,0,0,1,0,1.5H31.065a1.184,1.184,0,0,0-.6.091l.016,9.57c.011.133.348.584.584.584H42.216a1.193,1.193,0,0,0,.113-.584V45.457a.751.751,0,1,1,1.5,0v5.873c0,1.3-.789,2.084-1.549,2.084Zm-6.713-3.824a.749.749,0,0,1-.721-.543c-.009-.03-.921-3.19.97-5.45,1.238-1.479,3.334-2.185,6.239-2.106l-2.445-2.447a.75.75,0,0,1,0-1.06.763.763,0,0,1,1.065,0l4.305,4.3L40.643,46.1a.764.764,0,0,1-1.061-.065.752.752,0,0,1,.066-1.06l2.258-1.988c-2.355-.052-4.02.476-4.936,1.568a4.888,4.888,0,0,0-.678,4.069.752.752,0,0,1-.512.929.726.726,0,0,1-.212.033Z" transform="translate(-28.98 -37.768)" fill="#ff8e00"/>
</svg>
