<svg xmlns="http://www.w3.org/2000/svg" xmlns:xlink="http://www.w3.org/1999/xlink" width="48" height="48" viewBox="0 0 48 48">
  <defs>
    <clipPath id="clip-Check_In">
      <rect width="48" height="48"/>
    </clipPath>
  </defs>
  <g id="Check_In" data-name="Check In" clip-path="url(#clip-Check_In)">
    <rect width="48" height="48" fill="#fff"/>
    <g id="Group_15789" data-name="Group 15789" transform="translate(-13.067 -16)">
      <path id="Subtraction_3" data-name="Subtraction 3" d="M12.742,36.251a1.524,1.524,0,0,1-1.49-1.553V32.354H1.642A1.606,1.606,0,0,1,0,30.713V1.642A1.575,1.575,0,0,1,1.407,0h23.21V32.588L13.362,36.1A1.364,1.364,0,0,1,12.742,36.251ZM2.11,1.876V30.713h9.142V5.393a1.946,1.946,0,0,1,.939-1.407l6.579-2.11Z" transform="translate(31.913 22)" fill="#fd8d25"/>
      <g id="Path_14759" data-name="Path 14759" transform="translate(17.067 -48.984)" fill="#fd8d25">
        <path d="M 13.29575634002686 94.19757080078125 C 12.83945655822754 94.19757080078125 12.4095458984375 94.01896667480469 12.08522605895996 93.69463348388672 C 11.76393604278564 93.37881469726562 11.58425617218018 92.95257568359375 11.58230590820312 92.49744415283203 C 11.58034610748291 92.03839111328125 11.75895595550537 91.60590362548828 12.08522605895996 91.27963256835938 L 14.80863857269287 88.55621337890625 L 1.208426237106323 88.55621337890625 C 0.2663962841033936 88.55621337890625 -0.5000037550926208 87.78981018066406 -0.5000037550926208 86.84777069091797 C -0.5000037550926208 85.90576171875 0.2663962841033936 85.13937377929688 1.208426237106323 85.13937377929688 L 14.80863857269287 85.13937377929688 L 12.08522605895996 82.41595458984375 C 11.76394653320312 82.10014343261719 11.58426666259766 81.67391204833984 11.58230590820312 81.21879577636719 C 11.58033657073975 80.75974273681641 11.75893592834473 80.32723236083984 12.08520603179932 80.00093078613281 C 12.40360641479492 79.68258666992188 12.84371662139893 79.50001525878906 13.2927360534668 79.50001525878906 C 13.74175643920898 79.50001525878906 14.18186664581299 79.68258666992188 14.50022602081299 80.00089263916016 L 20.13958549499512 85.64027404785156 C 20.46088600158691 85.95610046386719 20.64056587219238 86.38233947753906 20.64250564575195 86.83748626708984 C 20.64446640014648 87.29653167724609 20.46585655212402 87.72902679443359 20.13958549499512 88.05529022216797 L 14.50024604797363 93.69463348388672 C 14.1825065612793 94.01788330078125 13.75367641448975 94.19757080078125 13.29575634002686 94.19757080078125 Z" stroke="none"/>
        <path d="M 13.2957592010498 93.69757080078125 C 13.6049165725708 93.69757080078125 13.91306591033936 93.57874298095703 14.14669609069824 93.34107971191406 L 19.78603553771973 87.70173645019531 C 20.26135635375977 87.22642517089844 20.26135635375977 86.46109008789062 19.78603553771973 85.99382019042969 L 14.14669609069824 80.35447692871094 C 13.91306591033936 80.12087249755859 13.59887599945068 80.00001525878906 13.2927360534668 80.00001525878906 C 12.98659610748291 80.00001525878906 12.67240619659424 80.12087249755859 12.43877601623535 80.35447692871094 C 11.96346664428711 80.82982635498047 11.96346664428711 81.59514617919922 12.43877601623535 82.06240081787109 L 16.0157356262207 85.63937377929688 L 1.208426237106323 85.63937377929688 C 0.539766252040863 85.63937377929688 -3.730468733920134e-06 86.17914581298828 -3.730468733920134e-06 86.84777069091797 C -3.730468733920134e-06 87.51645660400391 0.539766252040863 88.05621337890625 1.208426237106323 88.05621337890625 L 16.0157356262207 88.05621337890625 L 12.43877601623535 91.63318634033203 C 11.96346664428711 92.10848999023438 11.96346664428711 92.87382507324219 12.43877601623535 93.34107971191406 C 12.67643642425537 93.57874298095703 12.98660087585449 93.69757080078125 13.2957592010498 93.69757080078125 M 13.29575634002686 94.69757080078125 C 12.70686817169189 94.69757080078125 12.15227699279785 94.46773529052734 11.73375797271729 94.05028533935547 C 11.31613731384277 93.6376953125 11.08481788635254 93.08720397949219 11.08231639862061 92.49957275390625 C 11.0797758102417 91.90616607666016 11.31039619445801 91.34735107421875 11.73166656494141 90.92607116699219 L 13.60152149200439 89.05621337890625 L 1.208426237106323 89.05621337890625 C -0.00930373091250658 89.05621337890625 -1.000003695487976 88.06551361083984 -1.000003695487976 86.84777069091797 C -1.000003695487976 85.63005065917969 -0.00930373091250658 84.63937377929688 1.208426237106323 84.63937377929688 L 13.60152149200439 84.63937377929688 L 11.7335090637207 82.77135467529297 C 11.31604385375977 82.35880279541016 11.08483791351318 81.80844116210938 11.08231639862061 81.22093963623047 C 11.07976627349854 80.62753295898438 11.3103666305542 80.06870269775391 11.73163604736328 79.64739227294922 C 12.1431360244751 79.23594665527344 12.71211624145508 79.00001525878906 13.2927360534668 79.00001525878906 C 13.87335586547852 79.00001525878906 14.4423360824585 79.23594665527344 14.85375595092773 79.64732360839844 L 20.4913158416748 85.28488159179688 C 20.90880012512207 85.69745635986328 21.14000511169434 86.24783325195312 21.14250564575195 86.83535003662109 C 21.1450366973877 87.42876434326172 20.91441535949707 87.98757171630859 20.49313545227051 88.40884399414062 L 14.85565376281738 94.04634857177734 C 14.44060325622559 94.46633911132812 13.88685512542725 94.69757080078125 13.29575634002686 94.69757080078125 Z" stroke="none" fill="#fff"/>
      </g>
    </g>
  </g>
</svg>
