<svg xmlns="http://www.w3.org/2000/svg" xmlns:xlink="http://www.w3.org/1999/xlink" width="60" height="60" viewBox="0 0 60 60">
  <defs>
    <clipPath id="clip-Copy_Rates">
      <rect width="60" height="60"/>
    </clipPath>
  </defs>
  <g id="Copy_Rates" data-name="Copy Rates" clip-path="url(#clip-Copy_Rates)">
    <g id="Group_16399" data-name="Group 16399">
      <circle id="Ellipse_1526" data-name="Ellipse 1526" cx="12" cy="12" r="12" transform="translate(30 30)" fill="#fd8d00"/>
      <g id="Group_16398" data-name="Group 16398" transform="translate(0 1)">
        <path id="Subtraction_21" data-name="Subtraction 21" d="M-3631.327-9643.241h-16.3a6.377,6.377,0,0,1-6.37-6.37v-21.572a6.376,6.376,0,0,1,6.37-6.367h20.935a6.375,6.375,0,0,1,6.367,6.367v9.088a13.952,13.952,0,0,0-3.184.869v-9.957a3.187,3.187,0,0,0-3.184-3.184h-20.935a3.187,3.187,0,0,0-3.184,3.184v21.572a3.187,3.187,0,0,0,3.184,3.184h15.5a13.948,13.948,0,0,0,.8,3.186Zm15.776-21.052a1.593,1.593,0,0,1-1.592-1.592v-11.746a3.188,3.188,0,0,0-3.186-3.184H-3638a1.6,1.6,0,0,1-1.592-1.595A1.593,1.593,0,0,1-3638-9684h17.671a6.377,6.377,0,0,1,6.37,6.37v11.746A1.594,1.594,0,0,1-3615.55-9664.293Z" transform="translate(3660.25 9689.25)" fill="#fd8d00"/>
        <g id="Group_16397" data-name="Group 16397" transform="translate(13.722 19.768)">
          <g id="Group_16394" data-name="Group 16394">
            <g id="Group_16393" data-name="Group 16393">
              <path id="Path_14787" data-name="Path 14787" d="M179.321,170.667a8.654,8.654,0,1,0,8.654,8.654A8.663,8.663,0,0,0,179.321,170.667Zm0,15.577a6.923,6.923,0,1,1,6.923-6.923A6.931,6.931,0,0,1,179.321,186.244Z" transform="translate(-170.667 -170.667)" fill="#fd8d00"/>
            </g>
          </g>
          <g id="Group_16396" data-name="Group 16396" transform="translate(5.193 3.462)">
            <g id="Group_16395" data-name="Group 16395">
              <path id="Path_14788" data-name="Path 14788" d="M225.5,209.142c-.022,0-.042,0-.064,0s-.041-.015-.063-.016c-1.067-.045-1.619-.456-1.614-.84.006-.362.5-.877,1.585-.891,1.485,0,1.806.405,1.912.537a.865.865,0,1,0,1.355-1.076,3.343,3.343,0,0,0-2.408-1.144v-.048a.865.865,0,1,0-1.731,0v.093a2.738,2.738,0,0,0-2.442,2.5c-.018,1.2.956,2.445,3.15,2.581,1.462.281,1.918.8,1.9,1-.023.258-.628.728-1.756.749-1.321,0-1.558-.186-1.964-.6a.865.865,0,0,0-1.241,1.206,3.315,3.315,0,0,0,2.351,1.089v.038a.865.865,0,1,0,1.731,0v-.088c1.472-.261,2.506-1.114,2.6-2.243C228.848,211.478,228.739,209.764,225.5,209.142Z" transform="translate(-221.875 -204.8)" fill="#fd8d00"/>
            </g>
          </g>
        </g>
        <g id="right-arrow" transform="translate(33.582 34.743)">
          <g id="Group_16388" data-name="Group 16388" transform="translate(0 0)">
            <path id="Path_14784" data-name="Path 14784" d="M15.51,76.534l-4.9-4.408a.49.49,0,0,0-.818.364V74.94H8.325C3.579,74.94,0,78.308,0,82.775a.489.489,0,0,0,.355.47.461.461,0,0,0,.135.02.49.49,0,0,0,.415-.23l.147-.235a7.828,7.828,0,0,1,6.225-3.942H9.795v2.449a.491.491,0,0,0,.291.448.5.5,0,0,0,.527-.083l4.9-4.408a.492.492,0,0,0,0-.729Z" transform="translate(1 -72.001)" fill="#fff"/>
          </g>
        </g>
      </g>
    </g>
  </g>
</svg>
