<svg xmlns="http://www.w3.org/2000/svg" xmlns:xlink="http://www.w3.org/1999/xlink" width="24" height="24" viewBox="0 0 24 24">
  <defs>
    <clipPath id="clip-Stay_through_min">
      <rect width="24" height="24"/>
    </clipPath>
  </defs>
  <g id="Stay_through_min" data-name="Stay through min" clip-path="url(#clip-Stay_through_min)">
    <g id="Group_15751" data-name="Group 15751" transform="translate(3 8)">
      <rect id="Rectangle_10421" data-name="Rectangle 10421" width="4.709" height="1.387" transform="translate(13.291 3.277)" fill="#e257a6"/>
      <path id="Path_14704" data-name="Path 14704" d="M-26.156,1230.687a6.026,6.026,0,0,0-1.449-.611,4.5,4.5,0,0,1-1.294-.552.848.848,0,0,1-.393-.708.936.936,0,0,1,.363-.785,1.635,1.635,0,0,1,1.022-.282,1.566,1.566,0,0,1,1.086.343,1.211,1.211,0,0,1,.379.947h1.337a2.177,2.177,0,0,0-.36-1.219,2.358,2.358,0,0,0-.993-.845,3.332,3.332,0,0,0-1.438-.3,3.086,3.086,0,0,0-1.977.605,1.885,1.885,0,0,0-.761,1.54,1.982,1.982,0,0,0,1.056,1.73,6.235,6.235,0,0,0,1.485.625,4.318,4.318,0,0,1,1.292.557.936.936,0,0,1,.359.786.915.915,0,0,1-.353.75,1.654,1.654,0,0,1-1.053.284,1.909,1.909,0,0,1-1.247-.36,1.251,1.251,0,0,1-.436-1.019h-1.342a2.136,2.136,0,0,0,.39,1.274,2.584,2.584,0,0,0,1.093.857,3.766,3.766,0,0,0,1.542.311,3.214,3.214,0,0,0,2.009-.571,1.838,1.838,0,0,0,.74-1.536,2.053,2.053,0,0,0-.255-1.038A2.316,2.316,0,0,0-26.156,1230.687Z" transform="translate(30.874 -1226.677)" fill="#e257a6"/>
      <path id="Path_14705" data-name="Path 14705" d="M-23.8,1227.878h2.388v6.644h1.332v-6.644h2.409V1226.8H-23.8Z" transform="translate(30.207 -1226.688)" fill="#e257a6"/>
    </g>
    <rect id="Rectangle_10425" data-name="Rectangle 10425" width="20" height="20" transform="translate(0 2)" fill="none"/>
  </g>
</svg>
